<svg id="Capa_1" data-name="Capa 1" xmlns="http://www.w3.org/2000/svg" viewBox="0 0 443.78 470.05"><defs><style>.cls-1{fill:#312783;}.cls-2{fill:#87bf58;}.cls-3{fill:none;stroke:#87bf58;stroke-miterlimit:10;stroke-width:34.02px;}</style></defs><title>ug</title><path class="cls-1" d="M72.8,416.64,291.22,198.56,516.58,423.91l-25.8,25.8L291.06,250,99.22,442.52Z" transform="translate(-72.8 -198.56)"/><path class="cls-2" d="M227.15,380.67V548.38c0,63.48,31.62,90.38,74.11,90.38,6.82,0,30.34.1,50.47-16,32.73-26.18,27.32-71.57,26.94-74.37l.93-54.12L399,460.56l-20.3-66.8L390.46,410q13.91,26,27.83,52.08c.38,8.11.88,19.93,1.27,34.21.36,12.85,1,37.72.65,49.56-.56,17.16-1.45,61.38-31.63,91.4C356.66,669,315.69,668.6,299.84,668.6c-65.14,0-114.23-33.21-114.23-121.06V380.67Z" transform="translate(-72.8 -198.56)"/><path class="cls-2" d="M428.92,425.49" transform="translate(-72.8 -198.56)"/><circle class="cls-3" cx="259.78" cy="268.62" r="69.68"/><path class="cls-1" d="M430.54,454.43" transform="translate(-72.8 -198.56)"/><path class="cls-1" d="M396.41,441.49" transform="translate(-72.8 -198.56)"/></svg>